<?xml version="1.0" encoding="utf-8"?>
<!-- Generator: Adobe Illustrator 27.5.0, SVG Export Plug-In . SVG Version: 6.00 Build 0)  -->
<svg version="1.1" xmlns="http://www.w3.org/2000/svg" xmlns:xlink="http://www.w3.org/1999/xlink" x="0px" y="0px"
	 viewBox="0 0 3710 3710" style="enable-background:new 0 0 3710 3710;" xml:space="preserve">
<g id="Background">
	<g>
		<g>
			<rect style="fill:#FFFFFF;" width="3710" height="3710"/>
		</g>
	</g>
</g>
<g id="Illustration">
	<g>
		<linearGradient id="SVGID_1_" gradientUnits="userSpaceOnUse" x1="3576.5793" y1="4071.3474" x2="1115.4457" y2="1014.7738">
			<stop  offset="0" style="stop-color:#DAE3FE"/>
			<stop  offset="1" style="stop-color:#E9EFFD"/>
		</linearGradient>
		<path style="fill:url(#SVGID_1_);" d="M2899.506,2865.945c-56.531,59.514-110.021,97.893-152.282,128.216
			c-496.769,356.437-1084.578,252.537-1209.504,227.164c-184.476-37.468-541.066-109.893-798.873-413.07
			c-390.041-458.68-329.306-1181.319-26.764-1658.342c55.34-87.256,347.66-571.545,941.8-649.21
			c359.567-47.002,778.707,47.795,1082.237,302.093C3373.257,1336.589,3327.899,2414.946,2899.506,2865.945z"/>
		<g style="opacity:0.8;">
			<path style="fill:#BDD0FB;" d="M1843.608,2316.156c0,0-295.904-1035.56-835.934-1583.197
				c-36.302-36.814-98.922-19.122-110.281,31.316C821.438,1101.543,692.677,2119.917,1843.608,2316.156z"/>
			<path style="opacity:0.5;fill:#FFFFFF;" d="M1736.223,2253.422c2.67,2.381-0.533,6.487-3.498,4.485
				c-109.33-73.795-535.791-441.464-721.948-1204.538c-0.598-2.451,2.996-3.56,3.804-1.17
				C1074.072,1228.334,1314.01,1876.865,1736.223,2253.422z"/>
		</g>
		<g>
			<path style="fill:#91B3FA;" d="M2128.964,2890.945c0,0-733.901-1087.072-1566.051-1517.014
				c-55.939-28.901-121.75,15.243-115.84,77.929C486.588,1871.026,722.349,3098.679,2128.964,2890.945z"/>
			<path style="opacity:0.5;fill:#FFFFFF;" d="M1980.936,2858.896c3.991,1.748,1.835,7.711-2.354,6.514
				c-154.462-44.12-787.122-308.623-1290.996-1121.706c-1.618-2.612,2.124-5.254,3.961-2.791
				C826.981,1922.347,1349.834,2582.496,1980.936,2858.896z"/>
		</g>
		<g>
			
				<linearGradient id="SVGID_00000181077753509933541510000008755500561519019692_" gradientUnits="userSpaceOnUse" x1="3919.3958" y1="1095.3463" x2="3470.1172" y2="1701.1925">
				<stop  offset="0" style="stop-color:#09005D"/>
				<stop  offset="1" style="stop-color:#1A0F91"/>
			</linearGradient>
			<polygon style="fill:url(#SVGID_00000181077753509933541510000008755500561519019692_);" points="3031.566,2443.26 
				3003.188,2443.26 3003.188,2180.154 3056.827,2161.933 			"/>
			
				<linearGradient id="SVGID_00000162324484458792471230000000856664428731124642_" gradientUnits="userSpaceOnUse" x1="1821.5563" y1="3741.8704" x2="1828.3641" y2="2890.9636">
				<stop  offset="0" style="stop-color:#4F52FF"/>
				<stop  offset="1" style="stop-color:#4042E2"/>
			</linearGradient>
			<path style="fill:url(#SVGID_00000162324484458792471230000000856664428731124642_);" d="M1747.715,2658.172l-847.16-424.026
				l74.136,649.532c19.787,21.962,48.455,51.751,85.703,83.892c279.087,240.817,621.841,252.889,713.913,254.844
				c86.282,1.832,452.158,9.6,736.605-235.644c29.063-25.058,51.44-47.725,66.247-63.5l189.157-643.128
				C2766.315,2280.143,1759.134,2663.403,1747.715,2658.172z"/>
			
				<linearGradient id="SVGID_00000142874760934017445580000006022007607934779782_" gradientUnits="userSpaceOnUse" x1="2467.6294" y1="1785.9297" x2="-160.3457" y2="3126.7356">
				<stop  offset="0" style="stop-color:#4F52FF"/>
				<stop  offset="1" style="stop-color:#4042E2"/>
			</linearGradient>
			<path style="fill:url(#SVGID_00000142874760934017445580000006022007607934779782_);" d="M610.123,2013.59l1308.972-352.199
				c11.356-4.683,1308.799,340.392,1308.799,340.392c47.761,19.479,47.01,98.465-1.109,116.708l-1329.443,522.463
				c-83.061,32.643-175.996,29.016-256.261-10.001L608.418,2128.977C562.885,2108.119,564.001,2032.609,610.123,2013.59z"/>
			
				<linearGradient id="SVGID_00000101787744710452343700000013587566121927862947_" gradientUnits="userSpaceOnUse" x1="4117.7744" y1="1242.4537" x2="3668.4971" y2="1848.2982">
				<stop  offset="0" style="stop-color:#09005D"/>
				<stop  offset="1" style="stop-color:#1A0F91"/>
			</linearGradient>
			<path style="fill:url(#SVGID_00000101787744710452343700000013587566121927862947_);" d="M3032.648,2380.343
				c0,0-281.881,391.294-18.464,641.244c9.472,8.989,23.574,6.141,29.652-6.205l100.034-203.202
				C3218.138,2661.315,3032.648,2380.343,3032.648,2380.343z"/>
			<path style="fill:#91B3FA;" d="M1786.216,2580.028c-32.348,0-64.659-6.942-94.324-20.738L604.459,2053.554
				c-3.218-1.496-4.614-5.316-3.118-8.534c1.502-3.219,5.325-4.614,8.536-3.116l1087.433,505.736
				c51.344,23.874,111.113,25.973,163.996,5.764l1338.849-511.676c3.314-1.268,7.027,0.392,8.296,3.708
				c1.266,3.314-0.396,7.028-3.709,8.295l-1338.849,511.676C1840.338,2575.172,1813.266,2580.028,1786.216,2580.028z"/>
		</g>
		<g>
			<g>
				
					<linearGradient id="SVGID_00000049202295652869208200000001735730348605094051_" gradientUnits="userSpaceOnUse" x1="2684.2922" y1="669.3551" x2="2366.0532" y2="388.5556">
					<stop  offset="0" style="stop-color:#09005D"/>
					<stop  offset="1" style="stop-color:#1A0F91"/>
				</linearGradient>
				<path style="fill:url(#SVGID_00000049202295652869208200000001735730348605094051_);" d="M2484.532,617.921l28.749,48.572
					c3.902,6.593,10.466,11.178,18.004,12.546c18.932,3.435,57.832,4.737,106.711-24.803c49.643-30.001,60.505-63.562,62.637-80.447
					c0.772-6.114-0.486-12.306-3.578-17.636l-30.074-51.826L2484.532,617.921z"/>
				
					<linearGradient id="SVGID_00000178894148773225847510000009510920039924161687_" gradientUnits="userSpaceOnUse" x1="2532.5847" y1="435.542" x2="2597.2539" y2="626.1459">
					<stop  offset="0" style="stop-color:#09005D"/>
					<stop  offset="1" style="stop-color:#1A0F91"/>
				</linearGradient>
				<path style="fill:url(#SVGID_00000178894148773225847510000009510920039924161687_);" d="M2516.848,483.293l-77.069,143.603
					c-3.968,7.394,1.912,16.225,10.263,15.407c40.74-3.988,134.412-12.008,178.916-6.369c4.761,0.603,9.316-2.117,11.065-6.586
					l62.662-160.026c2.834-7.239-2.906-14.94-10.652-14.283c-40.849,3.464-144.002,13.051-169.906,23.499
					C2519.863,479.452,2518.003,481.142,2516.848,483.293z"/>
				
					<linearGradient id="SVGID_00000022541285859408707300000007030953890708566175_" gradientUnits="userSpaceOnUse" x1="2691.2617" y1="563.2239" x2="2691.2617" y2="775.9505">
					<stop  offset="0" style="stop-color:#09005D"/>
					<stop  offset="1" style="stop-color:#1A0F91"/>
				</linearGradient>
				<path style="fill:url(#SVGID_00000022541285859408707300000007030953890708566175_);" d="M2572.94,541.926
					c0,0,96.029-23.741,109.14-19.981c13.111,3.76,43.729,50.997,43.729,50.997c42.571,22.654,80.238,56.159,83.817,90.462
					c0,0-62.986-22.503-73.03-49.155c-10.043-26.653-14.369-37.362-14.369-37.362s-34.692-48.221-43.063-51.566
					C2679.163,525.321,2570.429,549.361,2572.94,541.926z"/>
				<path style="fill:#BDD0FB;" d="M2464.908,621.759l112.778-2.994l28.194-0.749l7.049-0.187l3.512-0.099
					c1.096-0.032,2.184-0.214,3.245-0.484c4.252-1.103,7.951-4.163,9.791-8.195l24.151-50.977c0.191-0.402,0.671-0.574,1.074-0.384
					c0.401,0.19,0.573,0.667,0.386,1.068l-23.764,51.159c-2.039,4.561-6.232,8.113-11.083,9.403
					c-1.211,0.319-2.455,0.534-3.709,0.581l-3.535,0.127l-7.047,0.24l-28.188,0.962l-112.751,3.849
					c-0.917,0.031-1.686-0.687-1.717-1.604c-0.031-0.917,0.687-1.686,1.604-1.717L2464.908,621.759z"/>
				<path style="fill:#BDD0FB;" d="M2741.886,596.891l0.011,0.232l0.03,0.286l0.06,0.58l0.201,1.195
					c0.142,0.799,0.373,1.599,0.552,2.401l0.755,2.378c0.282,0.785,0.615,1.556,0.919,2.337c0.286,0.788,0.671,1.538,1.044,2.294
					c0.378,0.753,0.727,1.521,1.127,2.263l1.288,2.187c0.437,0.725,0.833,1.476,1.344,2.157l1.457,2.091
					c0.492,0.693,0.947,1.414,1.509,2.057c1.082,1.317,2.143,2.654,3.243,3.959l3.525,3.73c0.297,0.308,0.581,0.629,0.888,0.927
					l0.947,0.869l1.896,1.74c2.457,2.402,5.245,4.431,7.908,6.608c0.658,0.555,1.368,1.043,2.077,1.533l2.119,1.479
					c1.417,0.98,2.816,1.989,4.25,2.946c2.952,1.783,5.871,3.632,8.857,5.366l9.146,4.891l0.028,0.015
					c0.281,0.15,0.387,0.501,0.237,0.782c-0.148,0.277-0.49,0.383-0.768,0.244l-9.33-4.681c-3.054-1.669-6.047-3.456-9.077-5.182
					c-1.474-0.93-2.917-1.913-4.377-2.868l-2.185-1.443c-0.731-0.478-1.463-0.954-2.146-1.5c-2.763-2.139-5.649-4.13-8.225-6.517
					l-1.983-1.728l-0.991-0.864c-0.323-0.297-0.623-0.618-0.936-0.926l-3.719-3.738c-1.17-1.315-2.302-2.667-3.456-4.001
					c-0.597-0.651-1.092-1.386-1.622-2.093l-1.572-2.138c-0.548-0.696-0.987-1.471-1.464-2.219l-1.41-2.26
					c-0.443-0.771-0.836-1.574-1.255-2.36c-0.415-0.789-0.841-1.574-1.172-2.409c-0.348-0.826-0.724-1.64-1.049-2.478l-0.885-2.558
					c-0.227-0.884-0.497-1.747-0.684-2.651l-0.264-1.364l-0.094-0.711l-0.045-0.36l-0.03-0.417c-0.065-0.915,0.624-1.71,1.539-1.775
					c0.915-0.065,1.71,0.624,1.775,1.539l0.002,0.027L2741.886,596.891z"/>
				<path style="fill:#BDD0FB;" d="M2759.222,610.012l2.351,2.266l2.673,2.531l5.384,5.042l10.816,10.047l21.698,20.033
					c0.368,0.337,0.392,0.908,0.055,1.276c-0.332,0.361-0.893,0.389-1.261,0.068l-22.21-19.474l-11.078-9.773l-5.523-4.913
					l-2.754-2.476l-1.376-1.26l-0.689-0.637c-0.289-0.281-0.614-0.632-0.898-0.961c-0.583-0.675-0.509-1.696,0.167-2.279
					c0.636-0.549,1.578-0.515,2.173,0.055L2759.222,610.012z"/>
			</g>
			<g>
				<g>
					<path style="fill:#7D97F4;" d="M3043.366,1761.163c-19.055-17.881-30.811-25.216-37.78-28.109
						c1.818-1.856,3.69-3.722,5.68-5.606c2.124-2.013,5.308-2.144,7.187-0.255l101.144,101.691
						c3.227,3.245,1.387,8.897-2.978,10.479C3104.366,1825.013,3072.822,1788.807,3043.366,1761.163z"/>
					
						<linearGradient id="SVGID_00000093889814952997500840000015906862994346918533_" gradientUnits="userSpaceOnUse" x1="6949.9111" y1="4482.9829" x2="6953.4829" y2="4875.8374" gradientTransform="matrix(0.7097 0.7044 0.7044 -0.7097 -5258.2993 299.0642)">
						<stop  offset="0" style="stop-color:#09005D"/>
						<stop  offset="1" style="stop-color:#1A0F91"/>
					</linearGradient>
					<path style="fill:url(#SVGID_00000093889814952997500840000015906862994346918533_);" d="M3116.62,1839.363
						c-0.38,0.137-0.748,0.296-1.165,0.368c-21.457,3.639-69.181,5.927-125.193-28.131l-22.385-20.857
						c0,0,7.008-26.391,37.71-57.688c6.969,2.893,18.725,10.228,37.78,28.109C3072.822,1788.807,3104.366,1825.013,3116.62,1839.363
						z"/>
				</g>
				<g>
					<path style="fill:#7D97F4;" d="M2507.539,2257.473c25.865-0.236,39.294-3.028,46.259-5.723
						c-0.032,2.571-0.096,5.187-0.231,7.896c-0.144,2.892-2.332,5.164-4.969,5.098l-141.924-3.596
						c-4.529-0.115-7.077-5.418-5.035-9.535C2420.221,2253.501,2467.556,2257.837,2507.539,2257.473z"/>
					
						<linearGradient id="SVGID_00000155118053226309019500000007539040964771732406_" gradientUnits="userSpaceOnUse" x1="3591.9568" y1="1988.8877" x2="3595.4919" y2="2377.7351" gradientTransform="matrix(-0.9998 -0.0189 -0.0189 0.9998 6115.481 12.0052)">
						<stop  offset="0" style="stop-color:#09005D"/>
						<stop  offset="1" style="stop-color:#1A0F91"/>
					</linearGradient>
					<path style="fill:url(#SVGID_00000155118053226309019500000007539040964771732406_);" d="M2401.639,2251.613
						c0.178-0.358,0.333-0.724,0.583-1.06c12.865-17.279,45.451-51.554,108.825-65.489l30.283-0.385
						c0,0,13.034,23.678,12.469,67.071c-6.965,2.696-20.394,5.487-46.259,5.723
						C2467.556,2257.837,2420.221,2253.501,2401.639,2251.613z"/>
				</g>
				<path style="fill:#7D97F4;" d="M2634.557,1858.546c-11.622-74.901-81.358-91.69-94.272-49.073
					c0,0-33.781,265.161-46.143,379.917c17.784,7.429,26.607,5.89,45.153,9.816
					C2567.608,2121.571,2642.816,1911.776,2634.557,1858.546z"/>
				<path style="fill:#7D97F4;" d="M2848.967,1848.777c-59.086-0.093-40.933-51.086-59.55-82
					c-21.522-0.889-97.07,13.639-97.07,13.639s41.607,195.456,126.86,167.464c68.937-22.635,157.782-97.464,186.379-127.733
					c-8.803-9.768-25.11-25.971-33.588-35.984C2951.94,1804.419,2896.901,1848.851,2848.967,1848.777z"/>
				
					<linearGradient id="SVGID_00000091701788477688216650000017105436561980856216_" gradientUnits="userSpaceOnUse" x1="8386.5645" y1="1854.5022" x2="8376.3535" y2="2108.072" gradientTransform="matrix(1 0 0 1 -5801.4741 0)">
					<stop  offset="0" style="stop-color:#A22B25"/>
					<stop  offset="1" style="stop-color:#C0423C"/>
				</linearGradient>
				<path style="fill:url(#SVGID_00000091701788477688216650000017105436561980856216_);" d="M2644.729,1140.599l2.751,92.074
					c0.176,5.896-3.509,11.216-9.109,13.07c-11.464,3.795-32.214,8.497-55.425,3.486c-6.923-1.495-11.344-8.333-10.13-15.31
					l12.614-72.529L2644.729,1140.599z"/>
				<g>
					
						<linearGradient id="SVGID_00000114032094277565682840000000022315670971804327_" gradientUnits="userSpaceOnUse" x1="4089.8667" y1="9308.5889" x2="4222.6079" y2="9056.7207" gradientTransform="matrix(1 0 0 1 -5801.4741 0)">
						<stop  offset="0" style="stop-color:#A22B25"/>
						<stop  offset="1" style="stop-color:#C0423C"/>
					</linearGradient>
					<path style="fill:url(#SVGID_00000114032094277565682840000000022315670971804327_);" d="M2581.625,1056.296
						c-0.83,1.041-28.665,76.78-40.909,110.156c-3.1,8.45,1.507,17.752,10.097,20.437l26.92,4.913
						c17.846,3.257,35.573-6.256,42.725-22.927l32.418-37.769c17.623-20.531,11.567-52.282-12.536-64.574
						C2616.601,1054.426,2590.567,1045.083,2581.625,1056.296z"/>
					
						<linearGradient id="SVGID_00000009587078442691243810000005155068991635850923_" gradientUnits="userSpaceOnUse" x1="-5449.5029" y1="1026.041" x2="-5620.4561" y2="1252.1975" gradientTransform="matrix(-1 0 0 1 -2851.1292 0)">
						<stop  offset="0" style="stop-color:#09005D"/>
						<stop  offset="1" style="stop-color:#1A0F91"/>
					</linearGradient>
					<path style="fill:url(#SVGID_00000009587078442691243810000005155068991635850923_);" d="M2635.204,1139.577l-7.706-3.853
						c0,0,30.822-50.086-3.853-53.938c-34.675-3.853-65.497-11.558-65.497-30.822c0-19.264,0-53.939,42.381-38.528
						c42.38,15.411,38.528,42.381,61.644,46.233c23.116,3.853,42.38,7.705,34.675,30.821c-7.705,23.117-23.116,38.527-15.411,46.233
						C2689.143,1143.429,2654.468,1181.957,2635.204,1139.577z"/>
					
						<linearGradient id="SVGID_00000177468146744073107090000011799992373738983332_" gradientUnits="userSpaceOnUse" x1="4132.6538" y1="9331.1406" x2="4265.395" y2="9079.2715" gradientTransform="matrix(1 0 0 1 -5801.4741 0)">
						<stop  offset="0" style="stop-color:#A22B25"/>
						<stop  offset="1" style="stop-color:#C0423C"/>
					</linearGradient>
					<path style="fill:url(#SVGID_00000177468146744073107090000011799992373738983332_);" d="M2626.978,1154.582
						c0,0,6.406-33.871,20.702-34.711c14.296-0.84,27.431,11.639,12.193,29.967
						C2640.917,1172.638,2626.978,1154.582,2626.978,1154.582z"/>
				</g>
				
					<linearGradient id="SVGID_00000154404841697688952100000003261593875127709343_" gradientUnits="userSpaceOnUse" x1="8359.3691" y1="1853.4042" x2="8349.1582" y2="2106.9749" gradientTransform="matrix(1 0 0 1 -5801.4741 0)">
					<stop  offset="0" style="stop-color:#A22B25"/>
					<stop  offset="1" style="stop-color:#C0423C"/>
				</linearGradient>
				<path style="fill:url(#SVGID_00000154404841697688952100000003261593875127709343_);" d="M2793.733,839.635
					c-6.509-6.509-32.546-3.255-22.782,16.273l-9.135,13.701c-2.514,3.771-3.168,8.463-1.747,12.766
					c2.844,8.612,8.443,23.595,16.219,35.445c-1.403,44.957-7.033,144.872-29.607,222.908c-35.065,118.734-99.2,92.225-99.2,92.225
					s-19.38-12.362-61.673-5.287c-87.938,32.591-131.315-60.073-132.132-61.839c-33.08-80.07-40.432-206.717-42.064-259.007
					c7.776-11.85,13.375-26.833,16.219-35.445c1.422-4.303,0.767-8.995-1.747-12.766l-9.134-13.701
					c9.763-19.527-16.273-22.782-22.782-16.273c-6.509,6.509-29.292,39.055-26.037,52.073c1.918,7.672,8.358,24.377,16.654,33.482
					c-28.925,94.498-15.875,188.59,8.351,265.051l-0.001,0.002c9.108,77.463,68.374,125.29,100.659,144.661
					c3.875,81.358,49.964,293.617,49.964,293.617l190.679-7.79l-2.347-284.83c0,0,43.938-81.912,47.164-89.945l0.557-0.025v-0.004
					c30.809-82.543,58.71-195.851,23.85-309.738c8.295-9.104,14.463-25.81,16.381-33.482
					C2823.296,878.69,2800.242,846.144,2793.733,839.635z"/>
				
					<linearGradient id="SVGID_00000069379423605306490070000015270970783058970497_" gradientUnits="userSpaceOnUse" x1="8534.8604" y1="908.2173" x2="8472.0498" y2="1936.7469" gradientTransform="matrix(1 0 0 1 -5801.4741 0)">
					<stop  offset="0" style="stop-color:#09005D"/>
					<stop  offset="1" style="stop-color:#1A0F91"/>
				</linearGradient>
				<path style="fill:url(#SVGID_00000069379423605306490070000015270970783058970497_);" d="M2493.805,2059.991
					c168.97,6.895,308.295-45.217,385.503-215.939l-147.218-519.151c-4.03-55.616-14.715-102.795-73.043-89.586
					c-14.297,28.461-25.058,55.573-53.881,81.699c-22.539-30.445-40.304-58.921-47.017-82.835l-39.467-8.289l-56.541,798.696
					C2460.824,2043.2,2475.161,2059.23,2493.805,2059.991z"/>
				
					<linearGradient id="SVGID_00000037690354835707020280000010714218791524185781_" gradientUnits="userSpaceOnUse" x1="8565.2529" y1="910.0152" x2="8502.4316" y2="1938.7271" gradientTransform="matrix(1 0 0 1 -5801.4741 0)">
					<stop  offset="0" style="stop-color:#09005D"/>
					<stop  offset="1" style="stop-color:#1A0F91"/>
				</linearGradient>
				<path style="fill:url(#SVGID_00000037690354835707020280000010714218791524185781_);" d="M2678.928,1233.316l56.512,103.399
					c66.856-104.568,89.47-220.348,84.425-346.835c-14.098,10.023-33.363,3.485-53.82-6.871
					C2758.823,1083.98,2739.67,1168.7,2678.928,1233.316z"/>
				
					<linearGradient id="SVGID_00000038381058585284994320000003407448330580514490_" gradientUnits="userSpaceOnUse" x1="8258.1914" y1="891.2632" x2="8195.3701" y2="1919.9755" gradientTransform="matrix(1 0 0 1 -5801.4741 0)">
					<stop  offset="0" style="stop-color:#09005D"/>
					<stop  offset="1" style="stop-color:#1A0F91"/>
				</linearGradient>
				<path style="fill:url(#SVGID_00000038381058585284994320000003407448330580514490_);" d="M2518.682,1225.891
					c-66.209-40.101-85.789-135.186-101.84-236.034c-19.696,9.308-35.969,11.796-49.028,7.876
					c-4.006,147.046,46.07,285.662,137.24,417.872L2518.682,1225.891z"/>
				
					<linearGradient id="SVGID_00000106131917468527285410000015854753413059712428_" gradientUnits="userSpaceOnUse" x1="2575.3491" y1="932.8824" x2="2599.1746" y2="1167.7324">
					<stop  offset="0" style="stop-color:#FF928E"/>
					<stop  offset="1" style="stop-color:#FE7062"/>
				</linearGradient>
				<path style="fill:url(#SVGID_00000106131917468527285410000015854753413059712428_);" d="M2600.527,1360.255
					c-26.654-44.161-49.814-88.032-68.262-131.512l16.868,3.543c15.781,33.808,33.464,67.099,53.114,99.856
					c26.935-30.441,48.081-64.231,63.466-98.102l13.215-0.724C2665.078,1270.698,2634.534,1314.184,2600.527,1360.255z"/>
			</g>
		</g>
		<g>
			<g>
				
					<linearGradient id="SVGID_00000179610505411771535020000000012766252037217430_" gradientUnits="userSpaceOnUse" x1="1374.3116" y1="566.7125" x2="1423.6643" y2="468.0074">
					<stop  offset="0" style="stop-color:#09005D"/>
					<stop  offset="1" style="stop-color:#1A0F91"/>
				</linearGradient>
				<path style="fill:url(#SVGID_00000179610505411771535020000000012766252037217430_);" d="M1424.196,711.653l-35.286,43.073
					c-4.79,5.847-11.875,9.338-19.43,9.546c-18.974,0.523-57.101-4.016-100.355-40.119c-43.93-36.668-49.51-71.016-49.069-87.8
					c0.16-6.077,2.311-11.928,6.122-16.664l37.065-46.048L1424.196,711.653z"/>
				
					<linearGradient id="SVGID_00000152968161891518079730000017050892234872631445_" gradientUnits="userSpaceOnUse" x1="1505.0759" y1="423.7494" x2="1419.9852" y2="537.7709">
					<stop  offset="0" style="stop-color:#09005D"/>
					<stop  offset="1" style="stop-color:#1A0F91"/>
				</linearGradient>
				<path style="fill:url(#SVGID_00000152968161891518079730000017050892234872631445_);" d="M1412.783,575.546l53.713,151.54
					c2.766,7.803-4.286,15.536-12.309,13.492c-39.132-9.972-129.278-31.778-173.518-32.924c-4.733-0.122-8.768-3.455-9.807-8.074
					l-37.212-165.404c-1.683-7.482,5.065-14.135,12.52-12.338c39.316,9.477,138.474,34.227,162.175,48.283
					C1410.417,571.35,1411.978,573.275,1412.783,575.546z"/>
				
					<linearGradient id="SVGID_00000109718795154005736380000000386401227889248703_" gradientUnits="userSpaceOnUse" x1="1191.3729" y1="711.0556" x2="1125.002" y2="806.3573">
					<stop  offset="0" style="stop-color:#09005D"/>
					<stop  offset="1" style="stop-color:#1A0F91"/>
				</linearGradient>
				<path style="fill:url(#SVGID_00000109718795154005736380000000386401227889248703_);" d="M1349.331,624.347
					c0,0-90.098-37.489-103.444-35.78c-13.346,1.709-50.256,43.201-50.256,43.201c-44.895,15.735-86.628,42.784-95.24,75.699
					c0,0,64.781-12.539,78.554-37.03c13.773-24.491,19.59-34.288,19.59-34.288s41.03-41.843,49.692-43.854
					C1248.228,592.294,1350.67,631.972,1349.331,624.347z"/>
				<path style="fill:#BDD0FB;" d="M1442.759,718.325l-109.527-19.758l-27.382-4.94l-6.845-1.235l-3.41-0.621
					c-1.064-0.194-2.098-0.535-3.092-0.956c-3.982-1.71-7.131-5.246-8.324-9.453l-15.939-53.316c-0.126-0.421-0.569-0.66-0.99-0.534
					c-0.419,0.125-0.658,0.565-0.536,0.984l15.535,53.435c1.307,4.752,4.866,8.842,9.404,10.824c1.133,0.492,2.314,0.888,3.531,1.12
					l3.428,0.652l6.836,1.287l27.344,5.147l109.374,20.588c0.889,0.167,1.746-0.418,1.914-1.307c0.167-0.89-0.418-1.746-1.307-1.914
					L1442.759,718.325z"/>
				<path style="fill:#BDD0FB;" d="M1176.378,652.72l-0.046,0.224l-0.072,0.275l-0.145,0.557l-0.374,1.135
					c-0.258,0.758-0.603,1.504-0.897,2.259l-1.091,2.207c-0.392,0.724-0.832,1.426-1.245,2.141c-0.397,0.726-0.884,1.4-1.36,2.081
					c-0.481,0.678-0.936,1.374-1.437,2.039l-1.583,1.94c-0.534,0.642-1.032,1.315-1.632,1.903l-1.733,1.822
					c-0.583,0.603-1.135,1.237-1.779,1.781c-1.252,1.122-2.486,2.268-3.753,3.377l-3.994,3.111c-0.336,0.256-0.66,0.527-1.005,0.771
					l-1.054,0.706l-2.108,1.413c-2.755,1.975-5.776,3.537-8.699,5.263c-0.725,0.443-1.49,0.813-2.254,1.184l-2.287,1.126
					c-1.528,0.744-3.043,1.519-4.584,2.238c-3.145,1.298-6.267,2.665-9.438,3.91l-9.649,3.404l-0.029,0.01
					c-0.297,0.105-0.453,0.43-0.348,0.727c0.103,0.292,0.42,0.447,0.713,0.352l9.797-3.172c3.227-1.171,6.413-2.468,9.625-3.698
					c1.576-0.686,3.13-1.43,4.697-2.143l2.346-1.081c0.784-0.357,1.569-0.712,2.317-1.142c3.014-1.673,6.125-3.184,8.994-5.126
					l2.192-1.389l1.096-0.695c0.359-0.241,0.7-0.51,1.051-0.763l4.185-3.09c1.337-1.108,2.643-2.257,3.967-3.386
					c0.679-0.546,1.271-1.189,1.894-1.799l1.852-1.85c0.639-0.597,1.182-1.287,1.759-1.945l1.713-1.994
					c0.547-0.686,1.05-1.41,1.576-2.114c0.523-0.708,1.055-1.409,1.503-2.174c0.463-0.753,0.95-1.491,1.392-2.26l1.245-2.363
					c0.353-0.828,0.745-1.63,1.062-2.483l0.461-1.29l0.197-0.68l0.098-0.344l0.091-0.403c0.2-0.882-0.353-1.76-1.235-1.961
					c-0.882-0.2-1.76,0.353-1.96,1.235c-0.002,0.009-0.004,0.018-0.006,0.026L1176.378,652.72z"/>
				<path style="fill:#BDD0FB;" d="M1157.514,662.927l-2.631,1.858l-2.984,2.068l-6.003,4.113l-12.047,8.182l-24.149,16.296
					c-0.409,0.274-0.518,0.827-0.244,1.236c0.27,0.402,0.813,0.512,1.219,0.255l24.565-15.674l12.261-7.876l6.119-3.966l3.055-2.003
					l1.53-1.023l0.767-0.518c0.324-0.231,0.693-0.525,1.019-0.803c0.67-0.572,0.749-1.578,0.177-2.248
					c-0.538-0.631-1.462-0.738-2.127-0.271L1157.514,662.927z"/>
			</g>
			<g>
				<g>
					
						<linearGradient id="SVGID_00000162334728351968691730000000736634692224540848_" gradientUnits="userSpaceOnUse" x1="-6886.7607" y1="2269.1096" x2="-6797.353" y2="2269.1096" gradientTransform="matrix(-1 0 0 1 -5613.8618 0)">
						<stop  offset="0" style="stop-color:#09005D"/>
						<stop  offset="1" style="stop-color:#1A0F91"/>
					</linearGradient>
					<path style="fill:url(#SVGID_00000162334728351968691730000000736634692224540848_);" d="M1183.493,2299.069
						c-0.011-0.673,0.034-1.355,0.207-2.042c10.18-40.363,51.807-61.051,51.807-61.051l20.024,1.57
						c11.512,35.574,18.935,52.941,17.086,62.659c-0.051,0.272-0.134,0.531-0.206,0.795
						C1255.895,2302.476,1221.898,2303.44,1183.493,2299.069z"/>
					<path style="fill:#7D97F4;" d="M1272.411,2301c-0.892,3.245-3.288,5.772-6.354,6.417c-23.496,4.941-60.84,0.965-76.52-1.085
						c-3.459-0.452-5.987-3.651-6.045-7.263C1221.898,2303.44,1255.895,2302.476,1272.411,2301z"/>
					
						<linearGradient id="SVGID_00000085223553509507253110000006787221700843754886_" gradientUnits="userSpaceOnUse" x1="11530.9199" y1="2164.1965" x2="11513.0703" y2="2319.9744" gradientTransform="matrix(1 0 0 1 -10287.3584 0)">
						<stop  offset="0" style="stop-color:#FEBBBA"/>
						<stop  offset="1" style="stop-color:#FF928E"/>
					</linearGradient>
					<path style="fill:url(#SVGID_00000085223553509507253110000006787221700843754886_);" d="M1219.021,2204.817l8.767,42.203
						c0.642,3.093,3.018,5.408,5.897,5.679c3.523,0.331,8.538,0.525,13.582-0.216c4.523-0.664,7.672-5.26,6.87-10.193l-6.094-37.473
						H1219.021z"/>
					<path style="fill:#7D97F4;" d="M1442.542,2300.65c-21.385-0.598-32.446-3.117-38.164-5.454
						c-0.013,2.126-0.001,4.29,0.068,6.532c0.074,2.395,1.848,4.308,4.03,4.294l117.416-0.758c3.747-0.024,5.937-4.37,4.313-7.806
						C1514.809,2298.73,1475.599,2301.575,1442.542,2300.65z"/>
					
						<linearGradient id="SVGID_00000006688478717355490990000009831643465795086213_" gradientUnits="userSpaceOnUse" x1="11691.7363" y1="2270.3801" x2="11817.5635" y2="2270.3801" gradientTransform="matrix(1 0 0 1 -10287.3584 0)">
						<stop  offset="0" style="stop-color:#09005D"/>
						<stop  offset="1" style="stop-color:#1A0F91"/>
					</linearGradient>
					<path style="fill:url(#SVGID_00000006688478717355490990000009831643465795086213_);" d="M1530.204,2297.458
						c-0.141-0.299-0.263-0.604-0.465-0.885c-10.369-14.489-36.78-43.341-88.967-55.854l-25.036-0.79
						c0,0-11.148,19.376-11.359,55.268c5.718,2.337,16.779,4.855,38.164,5.454
						C1475.599,2301.575,1514.809,2298.73,1530.204,2297.458z"/>
					
						<linearGradient id="SVGID_00000031193829605527442790000013201886330814639028_" gradientUnits="userSpaceOnUse" x1="11718.9502" y1="2184.1265" x2="11702.2539" y2="2329.8462" gradientTransform="matrix(1 0 0 1 -10287.3584 0)">
						<stop  offset="0" style="stop-color:#FEBBBA"/>
						<stop  offset="1" style="stop-color:#FF928E"/>
					</linearGradient>
					<path style="fill:url(#SVGID_00000031193829605527442790000013201886330814639028_);" d="M1411.094,2201.987
						c0.278,1.866,3.71,30.229,5.038,41.226c0.315,2.614,2.209,4.636,4.595,4.921c4.263,0.509,11.161,0.972,17.197-0.265
						c3.256-0.667,5.612-3.795,5.612-7.432v-44.521L1411.094,2201.987z"/>
					<path style="fill:#7D97F4;" d="M1235.75,1650.628c0,0-40.062,356.106-17.805,578.672c0,0,26.708,0,40.062-4.451
						c0,0,41.63-348.18,55.098-447.813c0.508-3.756,5.869-3.926,6.606-0.209c16.617,83.822,81.88,412.528,89.641,443.571
						c0,0,22.257,8.903,40.062,0c0,0-35.611-476.291-62.319-560.867L1235.75,1650.628z"/>
					
						<linearGradient id="SVGID_00000118380158582570443670000005222604255311410065_" gradientUnits="userSpaceOnUse" x1="1328.1753" y1="889.3966" x2="1317.9645" y2="1058.4435">
						<stop  offset="0" style="stop-color:#FF928E"/>
						<stop  offset="1" style="stop-color:#FE7062"/>
					</linearGradient>
					<path style="fill:url(#SVGID_00000118380158582570443670000005222604255311410065_);" d="M1155.626,1236.655
						c0,0,169.15-26.708,302.69,8.903l-8.903,137.99c0,0-35.611,191.407-62.319,275.982c0,0-102.38,17.805-151.345-8.903
						c0,0-40.062-240.371-62.318-275.982C1173.431,1374.646,1151.175,1281.168,1155.626,1236.655z"/>
					
						<linearGradient id="SVGID_00000163062835589521092750000007552827062593933752_" gradientUnits="userSpaceOnUse" x1="9731.8057" y1="1176.6721" x2="9811.8477" y2="1176.6721" gradientTransform="matrix(1 0 0 1 -8475.5234 0)">
						<stop  offset="0" style="stop-color:#FEBBBA"/>
						<stop  offset="1" style="stop-color:#FF928E"/>
					</linearGradient>
					<path style="fill:url(#SVGID_00000163062835589521092750000007552827062593933752_);" d="M1273.133,1115.024l-16.851,113.954
						c0,0,47.078,21.626,80.043-0.928l-7.097-80.422L1273.133,1115.024z"/>
					<g>
						
							<linearGradient id="SVGID_00000093860976156301829730000015797143474072421271_" gradientUnits="userSpaceOnUse" x1="17228.3203" y1="2534.3101" x2="17368.541" y2="2500.1824" gradientTransform="matrix(0.8757 -0.4828 0.4828 0.8757 -8341.8486 1095.1436)">
							<stop  offset="0" style="stop-color:#FEBBBA"/>
							<stop  offset="1" style="stop-color:#FF928E"/>
						</linearGradient>
						<path style="fill:url(#SVGID_00000093860976156301829730000015797143474072421271_);" d="M1345.684,1040.821
							c0.531,0.962,10.687,58.425,16.939,93.995c2.583,14.696-8.22,28.348-23.115,29.23l-13.641,0.807
							c-25.062,1.484-47.133-16.359-50.931-41.177l-9.863-64.432C1265.074,1059.244,1332.801,1017.452,1345.684,1040.821z"/>
						
							<linearGradient id="SVGID_00000145047383444715933180000014495570167389818033_" gradientUnits="userSpaceOnUse" x1="8393.9893" y1="4618.9419" x2="8538.417" y2="4618.9419" gradientTransform="matrix(0.8757 -0.4828 0.4828 0.8757 -8341.8486 1095.1436)">
							<stop  offset="0" style="stop-color:#09005D"/>
							<stop  offset="1" style="stop-color:#1A0F91"/>
						</linearGradient>
						<path style="fill:url(#SVGID_00000145047383444715933180000014495570167389818033_);" d="M1250.368,1059.403
							c-5.23-6.504-9.79-17.019,1.347-28.077c11.275-11.196,24.066-8.405,32.18-4.651c3.59,1.662,8.016,0.926,10.573-2.096
							c1.136-1.342,2.823-2.255,5.323-1.975c4.717,0.529,8.928-2.585,9.488-7.299c0.96-8.081,5.265-17.595,19.551-20.355
							c26.205-5.065,39.277,21.16,38.81,39.593c-0.466,18.431-29.189,22.308-45.485,19.248c-11.97-2.248-22.32,8.271-26.971,14.013
							c-1.689,2.085-2.318,4.816-1.711,7.428l4.143,17.806c-2.87,5.536-5.686,11.188-9.716,15.912
							c-2.902,3.401-6.084,5.278-9.458,6.073c-4.886-9.094-18.551-10.637-24.901-10.84c-2.43-0.078-4.699-1.149-6.296-2.981
							c-4.791-5.495-12.29-17.753,2.064-29.791C1252.879,1068.419,1253.286,1063.034,1250.368,1059.403z"/>
						
							<linearGradient id="SVGID_00000165234333562776448880000003864170321887574152_" gradientUnits="userSpaceOnUse" x1="17223.4453" y1="2513.9817" x2="17363.668" y2="2479.8538" gradientTransform="matrix(0.8757 -0.4828 0.4828 0.8757 -8341.8486 1095.1436)">
							<stop  offset="0" style="stop-color:#FEBBBA"/>
							<stop  offset="1" style="stop-color:#FF928E"/>
						</linearGradient>
						<path style="fill:url(#SVGID_00000165234333562776448880000003864170321887574152_);" d="M1283.167,1134.087
							c0,0-0.565-32.153-13.577-35.173c-13.013-3.02-27.053,6.389-15.923,25.639
							C1267.511,1148.497,1283.167,1134.087,1283.167,1134.087z"/>
					</g>
					
						<linearGradient id="SVGID_00000055690501060625013670000002999584417219337093_" gradientUnits="userSpaceOnUse" x1="1262.1779" y1="748.7791" x2="1223.6034" y2="878.117">
						<stop  offset="0" style="stop-color:#FF928E"/>
						<stop  offset="1" style="stop-color:#FE7062"/>
					</linearGradient>
					<path style="fill:url(#SVGID_00000055690501060625013670000002999584417219337093_);" d="M1231.764,1390.357
						c0,0-382.207-104.037-192.426-371.59l12.84,18.18c0,0-53.378,191.182,136.034,208.401
						C1188.212,1245.349,1233.468,1361.906,1231.764,1390.357z"/>
					
						<linearGradient id="SVGID_00000059287727537931276300000007353983555907977134_" gradientUnits="userSpaceOnUse" x1="9561.9209" y1="938.9045" x2="9516.7207" y2="1087.4207" gradientTransform="matrix(1 0 0 1 -8475.5234 0)">
						<stop  offset="0" style="stop-color:#FEBBBA"/>
						<stop  offset="1" style="stop-color:#FF928E"/>
					</linearGradient>
					<path style="fill:url(#SVGID_00000059287727537931276300000007353983555907977134_);" d="M1038.048,1020.143
						c0,0-4.305-51.658,21.524-55.963c25.829-4.305,34.439,21.524,38.743,34.439c4.305,12.914-38.743,38.743-47.353,38.743
						S1038.048,1020.143,1038.048,1020.143z"/>
					
						<linearGradient id="SVGID_00000003076792604544916110000013718981881476167065_" gradientUnits="userSpaceOnUse" x1="-2661.2549" y1="-15534.377" x2="-2693.022" y2="-15435.6719" gradientTransform="matrix(-1 0 0 1 -6578.4941 0)">
						<stop  offset="0" style="stop-color:#FF928E"/>
						<stop  offset="1" style="stop-color:#FE7062"/>
					</linearGradient>
					<path style="fill:url(#SVGID_00000003076792604544916110000013718981881476167065_);" d="M1369.646,1403.272
						c0,0,382.207-104.037,192.426-371.59l-12.84,18.179c0,0,58.037,185.62-131.375,202.84
						C1417.857,1252.701,1367.941,1374.82,1369.646,1403.272z"/>
					
						<linearGradient id="SVGID_00000054976030090476190360000000702836280404218021_" gradientUnits="userSpaceOnUse" x1="-8093.5059" y1="951.819" x2="-8138.7065" y2="1100.3347" gradientTransform="matrix(-1 0 0 1 -6578.4941 0)">
						<stop  offset="0" style="stop-color:#FEBBBA"/>
						<stop  offset="1" style="stop-color:#FF928E"/>
					</linearGradient>
					<path style="fill:url(#SVGID_00000054976030090476190360000000702836280404218021_);" d="M1563.362,1033.057
						c0,0,4.305-51.657-21.524-55.962c-25.829-4.305-34.439,21.524-38.744,34.439c-4.305,12.915,38.744,38.743,47.353,38.743
						C1559.057,1050.277,1563.362,1033.057,1563.362,1033.057z"/>
				</g>
				
					<linearGradient id="SVGID_00000173152753551235312840000008681249871841965993_" gradientUnits="userSpaceOnUse" x1="1722.6169" y1="858.3372" x2="1021.4675" y2="2233.4058">
					<stop  offset="0" style="stop-color:#09005D"/>
					<stop  offset="1" style="stop-color:#1A0F91"/>
				</linearGradient>
				<path style="fill:url(#SVGID_00000173152753551235312840000008681249871841965993_);" d="M1172.222,1234.005l11.27,796.73
					c95.371,32.491,195.556,31.562,300.158,0l-34.248-787.438c-20.928-6.528-65.977-12.239-100.477-14.546l-34.886,80.344
					l-67.63-81.362C1235.149,1226.835,1193.976,1229.95,1172.222,1234.005z"/>
				
					<linearGradient id="SVGID_00000135683385764326225640000008631787726086503830_" gradientUnits="userSpaceOnUse" x1="9760.7334" y1="1249.3872" x2="9897.2158" y2="1338.2869" gradientTransform="matrix(1 0 0 1 -8475.5234 0)">
					<stop  offset="0" style="stop-color:#FF928E"/>
					<stop  offset="1" style="stop-color:#FE7062"/>
				</linearGradient>
				<path style="fill:url(#SVGID_00000135683385764326225640000008631787726086503830_);" d="M1317.417,1350.071l-96.36-121.642
					l14.887-1.389l79.49,100.347c18.079-38.483,35.643-74.93,49.68-97.458l14.984,1.56
					C1362.049,1259.184,1340.014,1303.462,1317.417,1350.071z"/>
				
					<linearGradient id="SVGID_00000165931556726079933400000010466329722798973832_" gradientUnits="userSpaceOnUse" x1="752.0894" y1="938.9894" x2="1415.797" y2="1544.8359">
					<stop  offset="0" style="stop-color:#09005D"/>
					<stop  offset="1" style="stop-color:#1A0F91"/>
				</linearGradient>
				<path style="fill:url(#SVGID_00000165931556726079933400000010466329722798973832_);" d="M986.473,1118.373
					c20.969,4.901,42.01,3.49,63.15-6.265c3.081,72.677,59.517,112.396,122.599,121.896l2.328,164.661
					C1044.5,1330.295,971.923,1240.691,986.473,1118.373z"/>
				
					<linearGradient id="SVGID_00000018239231035126090530000014134055843085903003_" gradientUnits="userSpaceOnUse" x1="1869.0923" y1="971.4187" x2="1263.2467" y2="1427.5052">
					<stop  offset="0" style="stop-color:#09005D"/>
					<stop  offset="1" style="stop-color:#1A0F91"/>
				</linearGradient>
				<path style="fill:url(#SVGID_00000018239231035126090530000014134055843085903003_);" d="M1554.104,1102.151
					c19.064,5.102,36.321-0.515,52.5-12.5c38.689,139.924-28.571,226.886-151.23,290.939c-6.037-43.315-7.963-89.118-5.971-137.294
					C1505.043,1233.367,1541.35,1179.734,1554.104,1102.151z"/>
			</g>
		</g>
		<g>
			<g>
				
					<linearGradient id="SVGID_00000156558825591442419120000010464926839950592656_" gradientUnits="userSpaceOnUse" x1="2059.7908" y1="1005.3638" x2="2000.2271" y2="557.7871">
					<stop  offset="0" style="stop-color:#09005D"/>
					<stop  offset="1" style="stop-color:#1A0F91"/>
				</linearGradient>
				<path style="fill:url(#SVGID_00000156558825591442419120000010464926839950592656_);" d="M2133.444,766.892l12.966,55.033
					c1.76,7.47,0.204,15.338-4.29,21.56c-11.285,15.625-38.469,43.573-94.273,56.181c-56.676,12.805-87.82-3.887-101.083-14.598
					c-4.803-3.878-8.194-9.223-9.662-15.219l-14.268-58.303L2133.444,766.892z"/>
				
					<linearGradient id="SVGID_00000165940810113123653380000001960109239988133536_" gradientUnits="userSpaceOnUse" x1="2046.0284" y1="518.9058" x2="2027.3086" y2="728.2295">
					<stop  offset="0" style="stop-color:#09005D"/>
					<stop  offset="1" style="stop-color:#1A0F91"/>
				</linearGradient>
				<path style="fill:url(#SVGID_00000165940810113123653380000001960109239988133536_);" d="M2016.635,692.12l155.354,50.18
					c7.999,2.584,9.885,13.042,3.286,18.251c-32.186,25.406-105.391,84.653-133.61,119.624c-3.019,3.741-8.197,4.939-12.563,2.927
					l-156.354-72.042c-7.073-3.259-8.275-12.806-2.225-17.71c31.901-25.86,113.039-90.558,138.999-101
					C2011.792,691.439,2014.308,691.368,2016.635,692.12z"/>
				
					<linearGradient id="SVGID_00000107556258813428863480000015885816694361501857_" gradientUnits="userSpaceOnUse" x1="2012.1687" y1="922.2555" x2="2170.438" y2="1015.8557">
					<stop  offset="0" style="stop-color:#09005D"/>
					<stop  offset="1" style="stop-color:#1A0F91"/>
				</linearGradient>
				<path style="fill:url(#SVGID_00000107556258813428863480000015885816694361501857_);" d="M2016.843,773.402
					c0,0-85.823,49.531-92.679,61.349c-6.856,11.818,3.833,67.184,3.833,67.184c-15.01,45.915-18.945,96.261,2.288,123.514
					c0,0,29.856-59.98,18.603-86.199c-11.253-26.218-15.566-36.954-15.566-36.954s-8.43-58.906-4.708-67.133
					C1928.614,835.163,2023.819,777.026,2016.843,773.402z"/>
				<path style="fill:#BDD0FB;" d="M2150.278,756.038l-83.511,76.141l-20.878,19.035l-5.219,4.759l-2.605,2.367
					c-0.814,0.739-1.725,1.362-2.679,1.904c-3.836,2.156-8.631,2.515-12.76,0.88l-52.833-20.04
					c-0.417-0.158-0.883,0.051-1.042,0.469c-0.158,0.415,0.05,0.879,0.463,1.039l52.679,20.44
					c4.639,1.878,10.133,1.531,14.531-0.905c1.096-0.611,2.144-1.319,3.082-2.156l2.641-2.363l5.255-4.719l21.022-18.876
					l84.086-75.505c0.684-0.614,0.74-1.666,0.126-2.35c-0.614-0.684-1.666-0.74-2.35-0.126L2150.278,756.038z"/>
				<path style="fill:#BDD0FB;" d="M1933.016,930.39l0.152,0.175l0.177,0.227l0.359,0.461l0.685,1.002
					c0.452,0.676,0.841,1.414,1.268,2.117l1.107,2.241c0.342,0.763,0.636,1.551,0.958,2.326c0.34,0.768,0.584,1.577,0.839,2.381
					c0.25,0.806,0.531,1.602,0.757,2.417l0.588,2.474c0.189,0.827,0.424,1.644,0.528,2.49l0.401,2.522
					c0.126,0.842,0.298,1.678,0.339,2.533c0.133,1.702,0.295,3.404,0.407,5.11l0.045,5.141c0,0.428,0.018,0.857,0.002,1.286
					l-0.081,1.285l-0.161,2.572c-0.107,3.44-0.711,6.841-1.123,10.263c-0.09,0.858-0.263,1.703-0.435,2.548l-0.503,2.539
					c-0.343,1.691-0.652,3.391-1.023,5.078c-0.894,3.337-1.718,6.699-2.67,10.024l-3.208,9.882l-0.01,0.03
					c-0.099,0.304,0.068,0.63,0.372,0.729c0.299,0.097,0.62-0.063,0.724-0.357l3.487-9.858c1.047-3.325,1.967-6.694,2.956-10.044
					c0.419-1.695,0.777-3.406,1.169-5.11l0.576-2.559c0.196-0.852,0.394-1.704,0.509-2.573c0.51-3.463,1.211-6.905,1.415-10.416
					l0.232-2.624l0.116-1.312c0.027-0.438,0.021-0.879,0.033-1.318l0.09-5.281c-0.069-1.762-0.189-3.524-0.283-5.288
					c-0.021-0.884-0.174-1.759-0.282-2.638l-0.349-2.635c-0.087-0.883-0.308-1.747-0.484-2.618l-0.551-2.611
					c-0.215-0.864-0.489-1.716-0.732-2.575c-0.248-0.858-0.486-1.72-0.827-2.553c-0.322-0.838-0.616-1.686-0.963-2.517l-1.138-2.461
					c-0.45-0.796-0.854-1.607-1.347-2.389l-0.756-1.168l-0.427-0.579l-0.217-0.291l-0.268-0.322
					c-0.588-0.706-1.637-0.802-2.343-0.213s-0.801,1.638-0.213,2.343c0.006,0.007,0.012,0.014,0.018,0.021L1933.016,930.39z"/>
				<path style="fill:#BDD0FB;" d="M1929.609,951.901l-0.125,3.268l-0.173,3.683l-0.387,7.379l-0.834,14.764l-1.758,29.53
					c-0.031,0.499,0.348,0.928,0.846,0.959c0.49,0.031,0.914-0.339,0.958-0.826l2.516-29.482l1.214-14.748l0.577-7.382l0.269-3.7
					l0.119-1.865l0.055-0.938c0.013-0.404,0.004-0.883-0.019-1.317c-0.048-0.893-0.811-1.578-1.703-1.53
					c-0.841,0.045-1.497,0.724-1.531,1.548L1929.609,951.901z"/>
			</g>
			<g>
				
					<linearGradient id="SVGID_00000121251878323499962390000015418022547147116990_" gradientUnits="userSpaceOnUse" x1="3251.8445" y1="-756.056" x2="3250.7722" y2="-738.501" gradientTransform="matrix(0.9158 -0.5287 0.46 0.7967 -813.3972 3512.1565)">
					<stop  offset="0" style="stop-color:#09005D"/>
					<stop  offset="1" style="stop-color:#1A0F91"/>
				</linearGradient>
				<path style="fill:url(#SVGID_00000121251878323499962390000015418022547147116990_);" d="M1854.546,1182.295
					c1.731,2.998-11.441,13.844-29.421,24.224c-17.979,10.38-33.958,16.365-35.689,13.367c-1.731-2.998,11.441-13.844,29.42-24.224
					C1836.836,1185.282,1852.815,1179.297,1854.546,1182.295z"/>
				
					<linearGradient id="SVGID_00000107566991066151346070000015008379654274535090_" gradientUnits="userSpaceOnUse" x1="2214.3564" y1="1115.6714" x2="2213.1912" y2="1134.7552">
					<stop  offset="0" style="stop-color:#09005D"/>
					<stop  offset="1" style="stop-color:#1A0F91"/>
				</linearGradient>
				<path style="fill:url(#SVGID_00000107566991066151346070000015008379654274535090_);" d="M2251.645,1128.8
					c-1.324,3.87-16.839,8.195-37.88,8.195c-21.041,0-38.333-4.353-38.333-8.443c0-4.09,17.292-6.369,38.333-6.369
					C2234.805,1122.183,2253.047,1124.702,2251.645,1128.8z"/>
				
					<linearGradient id="SVGID_00000140705293341167004170000002273502158836798868_" gradientUnits="userSpaceOnUse" x1="5468.4531" y1="2168.0457" x2="5539.9258" y2="2168.0457" gradientTransform="matrix(-0.997 0.0777 0.0777 0.997 7120.2944 -157.9383)">
					<stop  offset="0" style="stop-color:#09005D"/>
					<stop  offset="1" style="stop-color:#1A0F91"/>
				</linearGradient>
				<path style="fill:url(#SVGID_00000140705293341167004170000002273502158836798868_);" d="M1835.287,2411.417l-1.455,33.637
					c-0.276,6.381-4.863,11.767-11.134,12.983c-10.586,2.053-27.63,4.64-44.54,4.175c-7.422-0.204-12.782-7.286-11.09-14.515
					c3.085-13.181,9.06-33.074,18.957-45.278l36.963-2.882C1829.823,2399.004,1835.583,2404.569,1835.287,2411.417z"/>
				
					<linearGradient id="SVGID_00000015334693411489685140000009690859030880886444_" gradientUnits="userSpaceOnUse" x1="5166.4453" y1="2449.8884" x2="5269.3018" y2="1247.752" gradientTransform="matrix(-0.997 0.0777 0.0777 0.997 7120.2944 -157.9383)">
					<stop  offset="0" style="stop-color:#FEBBBA"/>
					<stop  offset="1" style="stop-color:#FF928E"/>
				</linearGradient>
				<path style="fill:url(#SVGID_00000015334693411489685140000009690859030880886444_);" d="M2094.357,1998.517l9.1,36.213
					c0,0-4.392,213.25-1.507,298.188c0.452,13.317,4.908,26.164,12.755,36.932l40.928,56.161l-96.576-47.282l-2.716-11.123
					l13.493-21.959l-38.282-235.525c-2.248-13.835-0.464-28.026,5.141-40.875l16.3-37.365L2094.357,1998.517z"/>
				
					<linearGradient id="SVGID_00000031176079138729685620000002043301621559542938_" gradientUnits="userSpaceOnUse" x1="5136.3887" y1="2154.9866" x2="5252.0415" y2="2154.9866" gradientTransform="matrix(-0.997 0.0777 0.0777 0.997 7120.2944 -157.9383)">
					<stop  offset="0" style="stop-color:#09005D"/>
					<stop  offset="1" style="stop-color:#1A0F91"/>
				</linearGradient>
				<path style="fill:url(#SVGID_00000031176079138729685620000002043301621559542938_);" d="M2162.379,2434.083l-29.463,2.297
					c-5.515,0.43-10.913-1.697-14.618-5.805c-10.116-11.219-30.961-33.021-40.109-32.918c-12.313,0.137-7.351,43.563-7.351,43.563
					l-6.866,0.535l-12.917-53.436c-3.25-13.445,2.47-27.461,14.198-34.794l0,0c0,0,4.415,20.49,20.313,28.467
					c15.897,7.976,65.058,37.146,65.058,37.146s5.645-1.259,12-0.615C2172.052,2419.479,2171.826,2433.346,2162.379,2434.083z"/>
				
					<linearGradient id="SVGID_00000008855758696569664180000014578919596702669722_" gradientUnits="userSpaceOnUse" x1="5373.3462" y1="2467.7942" x2="5476.2314" y2="1265.3201" gradientTransform="matrix(-0.997 0.0777 0.0777 0.997 7120.2944 -157.9383)">
					<stop  offset="0" style="stop-color:#FEBBBA"/>
					<stop  offset="1" style="stop-color:#FF928E"/>
				</linearGradient>
				<path style="fill:url(#SVGID_00000008855758696569664180000014578919596702669722_);" d="M1969.258,2025.808
					c0,0-104.29,241.711-119.613,296.236c-15.322,54.524-18.691,99.276-18.625,103.484c0.102,6.575-7.547,13.486-29.98,15.235
					c-11.578,0.902-17.609-3.296-20.735-7.572c-2.668-3.647-3.164-8.434-1.483-12.628c5.963-14.88,24.86-62.421,31.562-83.838
					c8.002-25.571,20.61-139.608,29.284-179.592c8.674-39.984,18.617-83.397,66.612-126.415
					C1906.279,2030.718,1938.64,1993.67,1969.258,2025.808z"/>
				
					<linearGradient id="SVGID_00000092442380560337903330000000638577060725413271_" gradientUnits="userSpaceOnUse" x1="5164.6899" y1="2725.0603" x2="5178.2837" y2="2550.6079" gradientTransform="matrix(-0.991 0.1338 0.1338 0.991 6930.0884 -782.9296)">
					<stop  offset="0" style="stop-color:#E1473D"/>
					<stop  offset="1" style="stop-color:#E9605A"/>
				</linearGradient>
				<path style="fill:url(#SVGID_00000092442380560337903330000000638577060725413271_);" d="M2003.992,1206.287
					c0,0-122.68-37.743-142.873,90.22c-20.193,127.963-34.141,168.983-64.559,146.918c0,0,5.009,47.806,63.414,26.439
					C2011.574,1414.4,1919.307,1236.81,2003.992,1206.287z"/>
				
					<linearGradient id="SVGID_00000050635512132972466570000014675635781895912083_" gradientUnits="userSpaceOnUse" x1="5328.0225" y1="4986.9907" x2="5286.7192" y2="4562.1572" gradientTransform="matrix(-0.9974 0.073 -0.073 -0.9974 7575.6304 5832.5947)">
					<stop  offset="0" style="stop-color:#FEBBBA"/>
					<stop  offset="1" style="stop-color:#FF928E"/>
				</linearGradient>
				<path style="fill:url(#SVGID_00000050635512132972466570000014675635781895912083_);" d="M1978.598,1416.767
					c-5.121-5.003-81.389-72.027-112.918-154.961c-31.529-82.935-34.01-141.133-34.01-141.133s16.662-16.871,8.395-25.786
					c-8.267-8.913-7.512-15.949-16.441-16.565c-8.929-0.616-20.051-1.706-16.153,15.142c3.897,16.848-15.931,23.375-10.984,33.166
					c4.923,9.745,35.697,276.13,155.687,348.731c14.651,8.864,48.536,32.279,49.12,32.543
					C2045.804,1483.732,1986.831,1424.81,1978.598,1416.767z"/>
				
					<linearGradient id="SVGID_00000025424451866463895370000011148718408144626089_" gradientUnits="userSpaceOnUse" x1="-1604.7023" y1="5397.1211" x2="-1646.0094" y2="4972.25" gradientTransform="matrix(0.9821 -0.1883 -0.1883 -0.9821 4748.6631 6203.1943)">
					<stop  offset="0" style="stop-color:#FEBBBA"/>
					<stop  offset="1" style="stop-color:#FF928E"/>
				</linearGradient>
				<path style="fill:url(#SVGID_00000025424451866463895370000011148718408144626089_);" d="M2115.788,1388.211
					c3.647-6.161,66.975-89.609,75.9-177.884c8.925-88.276-3.782-145.124-3.782-145.124s-20.47-11.969-14.8-22.723
					c5.67-10.753,3.116-17.352,11.579-20.265c8.463-2.912,18.921-6.851,19.529,10.432c0.609,17.282,21.452,18.44,19.216,29.179
					c-2.225,10.689,25.086,285.17-71.952,386.424c-11.848,12.363-26.392,34.533-26.888,34.939
					C2075.331,1471.395,2109.924,1398.115,2115.788,1388.211z"/>
				
					<linearGradient id="SVGID_00000010285161688159014940000007655826879761364385_" gradientUnits="userSpaceOnUse" x1="2030.8141" y1="1064.0636" x2="2053.5049" y2="1260.3396">
					<stop  offset="0" style="stop-color:#FF928E"/>
					<stop  offset="1" style="stop-color:#FE7062"/>
				</linearGradient>
				<path style="fill:url(#SVGID_00000010285161688159014940000007655826879761364385_);" d="M2016.914,1639.36
					c0.837-125.542-46.093-229.883-46.093-229.883c25.658-28.784,45.818-26.363,75.574-40.152
					c26.88-12.455,58.626-8.013,81.044,11.355c24.665,21.309,51.498,51.488,47.901,79.74
					c-3.806,29.903-47.928,181.072-47.928,181.072S2077.921,1669.818,2016.914,1639.36z"/>
				
					<linearGradient id="SVGID_00000170237253872658814770000008433274356562633387_" gradientUnits="userSpaceOnUse" x1="5159.1411" y1="1210.2585" x2="5145.5117" y2="940.1533" gradientTransform="matrix(-0.997 0.0777 0.0777 0.997 7120.2944 -157.9383)">
					<stop  offset="0" style="stop-color:#FEBBBA"/>
					<stop  offset="1" style="stop-color:#FF928E"/>
				</linearGradient>
				<path style="fill:url(#SVGID_00000170237253872658814770000008433274356562633387_);" d="M2050.938,1285.13l-16.876,107.336
					c-1.666,10.347,23.591,16.122,33.709,13.385c16.568-4.481,21.799-10.894,28.023-24.543c0.634-1.389,0.885-2.923,0.975-4.447
					l4.794-80.811c0.38-6.411-3.529-12.3-9.584-14.439l-22.016-7.776C2061.486,1270.841,2052.367,1276.255,2050.938,1285.13z"/>
				<g>
					
						<linearGradient id="SVGID_00000037687984440363517410000010177309278606661508_" gradientUnits="userSpaceOnUse" x1="5026.6689" y1="1347.4282" x2="5192.1133" y2="1459.8052" gradientTransform="matrix(-0.991 0.1338 0.1338 0.991 6930.0884 -782.9296)">
						<stop  offset="0" style="stop-color:#FEBBBA"/>
						<stop  offset="1" style="stop-color:#FF928E"/>
					</linearGradient>
					<path style="fill:url(#SVGID_00000037687984440363517410000010177309278606661508_);" d="M2069.396,1192.089
						c0,0,35.687,9.699,65.229,55.388c29.543,45.689,15.44,70.53-5.677,76.529c-21.116,5.999-53.383,9.875-91.701-17.043
						C1998.93,1280.045,2023.225,1181.114,2069.396,1192.089z"/>
					
						<linearGradient id="SVGID_00000103257551446236578440000008967201136260604553_" gradientUnits="userSpaceOnUse" x1="5008.9009" y1="2712.9194" x2="5022.4941" y2="2538.4678" gradientTransform="matrix(-0.991 0.1338 0.1338 0.991 6930.0884 -782.9296)">
						<stop  offset="0" style="stop-color:#E1473D"/>
						<stop  offset="1" style="stop-color:#E9605A"/>
					</linearGradient>
					<path style="fill:url(#SVGID_00000103257551446236578440000008967201136260604553_);" d="M2056.629,1277.825
						c0,0-35.108-67.94,28.063-77.326l16.296,8.398c0,0,17.878-42.709-22.783-56.456c-40.66-13.747-95.256,10.749-104.544,64.284
						c-9.288,53.534,4.681,85.407,34.979,106.33c30.298,20.923,37.658-8.432,37.658-8.432s-17.795-20.993-13.473-34.093
						c4.323-13.1,20.121-0.127,20.121-0.127L2056.629,1277.825z"/>
					
						<linearGradient id="SVGID_00000078039022962814308300000014021941657192888995_" gradientUnits="userSpaceOnUse" x1="5030.9287" y1="1333.5913" x2="5196.3726" y2="1445.9679" gradientTransform="matrix(-0.991 0.1338 0.1338 0.991 6930.0884 -782.9296)">
						<stop  offset="0" style="stop-color:#FEBBBA"/>
						<stop  offset="1" style="stop-color:#FF928E"/>
					</linearGradient>
					<path style="fill:url(#SVGID_00000078039022962814308300000014021941657192888995_);" d="M2056.314,1286.734
						c0,0-17.842-35.03-33.047-18.068c-15.205,16.962,18.549,32.079,31.586,36.692L2056.314,1286.734z"/>
				</g>
				
					<linearGradient id="SVGID_00000029758327311918844620000014387186479211294881_" gradientUnits="userSpaceOnUse" x1="2206.9272" y1="1070.8805" x2="2093.0117" y2="2203.4646">
					<stop  offset="0" style="stop-color:#09005D"/>
					<stop  offset="1" style="stop-color:#1A0F91"/>
				</linearGradient>
				<path style="fill:url(#SVGID_00000029758327311918844620000014387186479211294881_);" d="M2176.274,1127.743
					c21.685,8.006,46.817,7.164,74.378,0.087c0.567-0.146,1.1,0.336,1.002,0.913c-20.344,119.997-42.898,235.44-73.172,321.695
					l-51.708-85.225c33.251-48.243,42.387-140.222,48.849-237.049C2175.645,1127.839,2175.968,1127.63,2176.274,1127.743z"/>
				
					<linearGradient id="SVGID_00000109735041167073768310000012689300364726639765_" gradientUnits="userSpaceOnUse" x1="1912.2515" y1="1041.2417" x2="1798.3358" y2="2173.8281">
					<stop  offset="0" style="stop-color:#09005D"/>
					<stop  offset="1" style="stop-color:#1A0F91"/>
				</linearGradient>
				<path style="fill:url(#SVGID_00000109735041167073768310000012689300364726639765_);" d="M1975.896,1398.567
					c-60.426-48.279-96.968-127.645-121.35-216.272c-19.987,19.629-41.943,32.05-65.417,37.649
					c52.93,126.326,110.794,232.272,181.693,284.394L1975.896,1398.567z"/>
				
					<linearGradient id="SVGID_00000048464790660778582100000017434656456101256092_" gradientUnits="userSpaceOnUse" x1="2116.9172" y1="1061.827" x2="2003.0017" y2="2194.4114">
					<stop  offset="0" style="stop-color:#09005D"/>
					<stop  offset="1" style="stop-color:#1A0F91"/>
				</linearGradient>
				<path style="fill:url(#SVGID_00000048464790660778582100000017434656456101256092_);" d="M2193.017,2196.302
					c-163.788,14.131-259.625,24.08-379.431-89.566c-7.752-7.354-10.813-18.404-7.884-28.68l165.119-579.247
					c4.03-55.616-32.937-101.892,48.588-122.596c14.297,28.461,23.305,51.695,50.263,78.653
					c20.441-30.217,28.516-65.737,35.23-89.652l26.55-0.437l38.844,59.998c6.501,10.041,9.305,22.027,7.878,33.904
					c-15.592,129.796,11.557,430.415,36.232,712.188C2215.539,2183.794,2205.946,2195.186,2193.017,2196.302z"/>
				
					<linearGradient id="SVGID_00000106146345749690289710000018325754754197625260_" gradientUnits="userSpaceOnUse" x1="2061.0002" y1="1151.9674" x2="2063.2693" y2="1316.4756">
					<stop  offset="0" style="stop-color:#FF928E"/>
					<stop  offset="1" style="stop-color:#FE7062"/>
				</linearGradient>
				<path style="fill:url(#SVGID_00000106146345749690289710000018325754754197625260_);" d="M2074.248,1493.493
					c-33.193-36.058-58.99-73.581-72.908-111.549l11.071-3.805c15.876,35.918,34.022,67.701,59.829,94.747
					c18.699-32.625,31.647-66.796,42.622-106.559l11.913-1.113C2115.923,1411.109,2097.134,1454.801,2074.248,1493.493z"/>
			</g>
		</g>
		<g>
			<path style="fill:#91B3FA;" d="M1009.492,2866.167c-40.818-88.238-105.018-148.437-188.183-185.895
				c-7.053-3.177-14.004,4.651-10.066,11.308l26.418,44.662c3.122,5.277,0.22,12.068-5.751,13.46l-50.488,11.771
				c-7.333,1.71-7.124,12.211,0.269,13.636c88.199,16.999,159.964,54.721,211.454,113.808L1009.492,2866.167z"/>
			<path style="fill:#91B3FA;" d="M1072.16,2857.483c-46.247-51.837-15.941-165.779,5.794-259.082
				c1.664-7.144-7.804-11.304-11.972-5.267l-41.785,60.518c-3.559,5.155-11.318,4.697-14.246-0.842l-27.59-52.194
				c-4.067-7.694-15.669-5.343-16.425,3.327c-8.589,98.378,2.351,184.004,50.541,245.309L1072.16,2857.483z"/>
			
				<linearGradient id="SVGID_00000176753659500045365970000015828483688729627558_" gradientUnits="userSpaceOnUse" x1="2906.9563" y1="2011.5118" x2="783.0888" y2="3767.7849">
				<stop  offset="0" style="stop-color:#FF928E"/>
				<stop  offset="1" style="stop-color:#FE7062"/>
			</linearGradient>
			<path style="fill:url(#SVGID_00000176753659500045365970000015828483688729627558_);" d="M628.488,2823.198l2093.893,137.904
				c69.882,12.88,98.886,260.803-12.034,275.002l-2071.963-20.78C534.123,3088.303,538.562,2864.27,628.488,2823.198z"/>
			<path style="fill:#BDD0FB;" d="M977.89,2845.614c-68.22,24.399-116.461,271.087-1.406,373.835l111.728,0.387
				c-101.226-106.828-106.161-288.55-2.797-366.544L977.89,2845.614z"/>
		</g>
	</g>
</g>
</svg>
